<svg width="16" height="20" viewBox="0 0 16 20" fill="none" xmlns="http://www.w3.org/2000/svg">
<path fill-rule="evenodd" clip-rule="evenodd" d="M10.3059 2.26951C10.3055 1.72292 10.1079 1.19484 9.74952 0.78214C9.39114 0.369442 8.89596 0.0998109 8.35484 0.0227147C7.81371 -0.0543814 7.26294 0.066228 6.80356 0.362415C6.34418 0.658602 6.007 1.1105 5.85389 1.63521C5.70078 2.15991 5.742 2.72223 5.97 3.219C6.19799 3.71576 6.59747 4.11366 7.09514 4.33968C7.5928 4.56571 8.15528 4.6047 8.67937 4.44951C9.20346 4.29433 9.65403 3.95536 9.94839 3.49481C10.1826 3.12911 10.3067 2.70378 10.3059 2.26951ZM11.9228 18.8644L11.2544 15.7634C11.2521 15.7529 11.2506 15.7425 11.2492 15.7323L10.6868 12.5979L10.2302 9.43376C10.2277 9.41691 10.2267 9.39989 10.227 9.38287C10.215 9.04371 10.3202 8.71075 10.5248 8.44001L10.5406 8.42068C10.7479 8.15787 11.0415 7.97683 11.3695 7.90958L11.3879 7.90647C12.1396 7.78047 12.8807 7.59811 13.605 7.36093C14.3127 7.10699 14.9977 6.79389 15.6529 6.42495C15.79 6.29483 15.8812 6.12372 15.9127 5.93735C15.9442 5.75098 15.9144 5.55941 15.8278 5.39142C15.7406 5.22348 15.5984 5.09059 15.4249 5.01499C15.2411 4.93496 15.0364 4.91678 14.8414 4.96321H14.8396C12.4054 5.70675 10.2697 6.11496 8.104 6.13029C5.9345 6.14563 3.74523 5.76741 1.20752 4.9381C1.01907 4.89629 0.822072 4.91805 0.647284 4.99997C0.472496 5.0819 0.329749 5.21939 0.241323 5.39098C0.150498 5.5706 0.121443 5.77516 0.158659 5.97296C0.190921 6.15619 0.280197 6.32455 0.413763 6.45406C1.06845 6.81134 1.7505 7.11599 2.45348 7.36515C3.17767 7.60054 3.91856 7.78105 4.66987 7.90513L4.67742 7.90647C5.01545 7.97682 5.31555 8.16961 5.52007 8.44779C5.72723 8.72859 5.83157 9.07206 5.81561 9.42065C5.81522 9.43121 5.81426 9.44174 5.81273 9.4522L5.35607 12.5979C5.35456 12.6088 5.35248 12.6196 5.34985 12.6303C4.97542 14.7163 4.61654 16.8302 4.13922 18.8948C4.10579 19.0513 4.11507 19.2139 4.1661 19.3655C4.23294 19.5645 4.36508 19.7351 4.54108 19.8495C4.71708 19.964 4.9266 20.0156 5.13561 19.9959C5.34462 19.9763 5.54086 19.8866 5.69246 19.7413C5.84407 19.5961 5.94213 19.4039 5.97072 19.1959C5.97222 19.1845 5.97429 19.1732 5.97694 19.1619L7.4749 13.1237L7.48223 13.0985C7.518 12.9788 7.59178 12.874 7.69242 12.8C7.79305 12.7259 7.91506 12.6867 8.04 12.6881H8.04133C8.17024 12.6896 8.29495 12.7341 8.39562 12.8147C8.49629 12.8952 8.56713 13.0071 8.59687 13.1325L10.0922 19.1613C10.0956 19.1753 10.0982 19.1896 10.0997 19.2039C10.118 19.3273 10.1608 19.4457 10.2258 19.552C10.2908 19.6584 10.3765 19.7507 10.4779 19.8232C10.5793 19.8957 10.6943 19.9471 10.816 19.9743C10.9376 20.0014 11.0635 20.0038 11.1861 19.9812C11.3088 19.9587 11.4256 19.9117 11.5296 19.843C11.6337 19.7743 11.7228 19.6854 11.7917 19.5815C11.8607 19.4776 11.908 19.3609 11.9308 19.2384C11.9537 19.1158 11.9516 18.9899 11.9248 18.8682V18.8655L11.9228 18.8644Z" fill="#195CFF"/>
</svg>
