<svg width="16" height="16" viewBox="0 0 16 16" fill="none" xmlns="http://www.w3.org/2000/svg">
<g clip-path="url(#clip0_131_23290)">
<path d="M15.429 15.4066H14.8575C14.2514 15.4066 13.67 15.1658 13.2413 14.7371C12.8126 14.3084 12.5718 13.727 12.5718 13.1208C12.5718 13.727 12.331 14.3084 11.9023 14.7371C11.4737 15.1658 10.8923 15.4066 10.2861 15.4066C9.67992 15.4066 9.09853 15.1658 8.66988 14.7371C8.24122 14.3084 8.00041 13.727 8.00041 13.1208C8.00041 13.727 7.7596 14.3084 7.33093 14.7371C6.90228 15.1658 6.3209 15.4066 5.71469 15.4066C5.10849 15.4066 4.52711 15.1658 4.09845 14.7371C3.66979 14.3084 3.42898 13.727 3.42898 13.1208C3.42898 13.727 3.18817 14.3084 2.75951 14.7371C2.33086 15.1658 1.74947 15.4066 1.14327 15.4066H0.571838" stroke="#2563C0" stroke-width="1.14286" stroke-linecap="round" stroke-linejoin="round"/>
<path d="M11.4296 10.8347C10.841 10.1191 10.1012 9.54277 9.26336 9.14707C8.42553 8.75137 7.51046 8.54614 6.58387 8.54614C5.65729 8.54614 4.74222 8.75137 3.90439 9.14707C3.06655 9.54277 2.32676 10.1191 1.73816 10.8347" stroke="#2563C0" stroke-width="1.14286" stroke-linecap="round" stroke-linejoin="round"/>
<path d="M7.42889 8.60573C7.49747 6.02288 8.28604 3.66859 10.0003 2.82288" stroke="#2563C0" stroke-width="1.14286" stroke-linecap="round" stroke-linejoin="round"/>
<path d="M6.5827 0.652974C7.32354 0.507096 8.09211 0.650985 8.73001 1.05498C9.36789 1.45899 9.82649 2.0923 10.0113 2.8244" stroke="#2563C0" stroke-width="1.14286" stroke-linecap="round" stroke-linejoin="round"/>
<path d="M14.1835 3.24636C13.6575 2.67839 12.9423 2.32201 12.1721 2.24415C11.4018 2.16628 10.6297 2.37231 10.0007 2.82351" stroke="#2563C0" stroke-width="1.14286" stroke-linecap="round" stroke-linejoin="round"/>
<path d="M5.80634 4.04468C6.25416 3.3849 6.91795 2.90186 7.68348 2.67868C8.449 2.45548 9.26838 2.50609 10.0006 2.82182C10.7351 3.00144 11.371 3.4595 11.774 4.09925C12.1771 4.739 12.3158 5.51034 12.1607 6.25039" stroke="#2563C0" stroke-width="1.14286" stroke-linecap="round" stroke-linejoin="round"/>
</g>
<defs>
<clipPath id="clip0_131_23290">
<rect width="16" height="16" fill="white"/>
</clipPath>
</defs>
</svg>
