<svg width="16" height="16" viewBox="0 0 16 16" fill="none" xmlns="http://www.w3.org/2000/svg">
<g clip-path="url(#clip0_131_23310)">
<path d="M14.8573 7.42883H10.2859C9.97032 7.42883 9.71448 7.68467 9.71448 8.00026V14.8574C9.71448 15.1729 9.97032 15.4288 10.2859 15.4288H14.8573C15.1729 15.4288 15.4288 15.1729 15.4288 14.8574V8.00026C15.4288 7.68467 15.1729 7.42883 14.8573 7.42883Z" stroke="#18142B" stroke-opacity="0.5" stroke-width="1.14286" stroke-linecap="round" stroke-linejoin="round"/>
<path d="M14.8573 0.572754H10.2859C9.97032 0.572754 9.71448 0.828592 9.71448 1.14418V3.44132C9.71448 3.75691 9.97032 4.01275 10.2859 4.01275H14.8573C15.1729 4.01275 15.4288 3.75691 15.4288 3.44132V1.14418C15.4288 0.828592 15.1729 0.572754 14.8573 0.572754Z" stroke="#18142B" stroke-opacity="0.5" stroke-width="1.14286" stroke-linecap="round" stroke-linejoin="round"/>
<path d="M5.71433 0.572754H1.1429C0.82731 0.572754 0.571472 0.828592 0.571472 1.14418V8.00133C0.571472 8.31691 0.82731 8.57275 1.1429 8.57275H5.71433C6.02992 8.57275 6.28576 8.31691 6.28576 8.00133V1.14418C6.28576 0.828592 6.02992 0.572754 5.71433 0.572754Z" stroke="#18142B" stroke-opacity="0.5" stroke-width="1.14286" stroke-linecap="round" stroke-linejoin="round"/>
<path d="M5.71427 11.9902H1.14284C0.827249 11.9902 0.571411 12.246 0.571411 12.5617V14.8588C0.571411 15.1743 0.827249 15.4302 1.14284 15.4302H5.71427C6.02986 15.4302 6.2857 15.1743 6.2857 14.8588V12.5617C6.2857 12.246 6.02986 11.9902 5.71427 11.9902Z" stroke="#18142B" stroke-opacity="0.5" stroke-width="1.14286" stroke-linecap="round" stroke-linejoin="round"/>
</g>
<defs>
<clipPath id="clip0_131_23310">
<rect width="16" height="16" fill="white"/>
</clipPath>
</defs>
</svg>
